<svg xmlns="http://www.w3.org/2000/svg" id="svg1" version="1.1" viewBox="24.322033898305087 78.408 60.50847457627119 12.474" style="max-height: 500px" width="60.50847457627119" height="12.474">
  
  <defs id="defs1">
    <rect id="rect4" height="237.45609" width="658.40097" y="302.21684" x="99.839491"/>
  </defs>
  <g id="layer1">
    <text id="text3" y="131.00841" x="160.23543" style="font-style:normal;font-variant:normal;font-weight:normal;font-stretch:normal;font-size:4.5861px;font-family:Bilbao;-inkscape-font-specification:Bilbao;text-align:start;writing-mode:lr-tb;direction:ltr;text-anchor:start;fill:#000000;stroke-width:0.264583" xml:space="preserve"><tspan y="131.00841" x="160.23543" style="stroke-width:0.264583" id="tspan3">z</tspan></text>
    <path aria-label="SWEET SNOWBALL" transform="scale(0.26458333)" style="font-size:29.3333px;font-family:Bilbao;-inkscape-font-specification:Bilbao;white-space:pre" id="text4" d="m 110.9865,308.88533 v 5.57333 q -0.704,-0.20533 -0.99733,-0.20533 -0.64534,0 -1.11467,0.49866 -0.46933,0.46934 -0.46933,1.144 0,0.616 0.968,2.288 1.20266,2.08266 1.20266,3.93066 0,2.93333 -2.024,4.928 -1.99466,1.99466 -4.95732,1.99466 -1.43734,0 -2.78667,-0.67466 v -5.632 q 0.82134,0.528 1.52533,0.528 0.73334,0 1.232,-0.44 0.49867,-0.44 0.49867,-1.08533 0,-0.41067 -0.82133,-1.87733 -1.29067,-2.288 -1.29067,-4.51733 0,-2.84533 1.936,-4.83999 1.96533,-2.024 4.72266,-2.024 1.26133,0 2.376,0.41066 z m 23.55461,0.088 v 14.07999 q 0,2.464 -1.26133,3.95999 -1.70133,2.024 -4.42933,2.024 -3.05066,0 -4.66399,-2.78666 -1.78933,2.78666 -4.86933,2.78666 -2.99199,0 -4.37066,-2.08266 -1.08533,-1.64267 -1.08533,-4.37066 v -13.61066 h 5.80799 v 12.73066 q 0,0.792 0.0587,1.02666 0.14667,0.528 0.704,0.528 0.85066,0 0.85066,-1.46666 v -12.81866 h 5.808 v 12.73066 q 0,0.76266 0.088,1.02666 0.14666,0.528 0.704,0.528 0.85066,0 0.85066,-1.55466 v -12.73066 z m 13.96266,7.62666 v 4.37066 h -3.81332 q -0.73334,0 -1.056,0.20534 -0.352,0.29333 -0.352,0.792 0,0.49866 0.41066,0.82133 0.264,0.14666 1.26134,0.14666 h 3.93066 v 5.60267 h -4.576 q -3.10933,0 -4.81066,-1.496 -1.81866,-1.61333 -1.81866,-4.488 v -7.68532 q 0,-2.816 1.61333,-4.34133 1.61333,-1.55467 4.51733,-1.55467 h 5.07466 v 5.60266 h -3.72533 q -1.496,0 -1.496,0.99734 0,1.02666 1.64266,1.02666 z m 14.13866,0 v 4.37066 h -3.81332 q -0.73334,0 -1.056,0.20534 -0.352,0.29333 -0.352,0.792 0,0.49866 0.41066,0.82133 0.264,0.14666 1.26134,0.14666 h 3.93066 v 5.60267 h -4.576 q -3.10933,0 -4.81066,-1.496 -1.81866,-1.61333 -1.81866,-4.488 v -7.68532 q 0,-2.816 1.61333,-4.34133 1.61333,-1.55467 4.51733,-1.55467 h 5.07466 v 5.60266 h -3.72533 q -1.496,0 -1.496,0.99734 0,1.02666 1.64267,1.02666 z m 12.232,-2.024 v 13.96266 h -5.80799 v -13.96266 h -4.45866 v -5.60266 h 14.69598 v 5.60266 z m 23.11462,-5.69066 v 5.57333 q -0.704,-0.20533 -0.99733,-0.20533 -0.64533,0 -1.11466,0.49866 -0.46934,0.46934 -0.46934,1.144 0,0.616 0.968,2.288 1.20267,2.08266 1.20267,3.93066 0,2.93333 -2.024,4.928 -1.99466,1.99466 -4.95733,1.99466 -1.43733,0 -2.78666,-0.67466 v -5.632 q 0.82133,0.528 1.52533,0.528 0.73333,0 1.232,-0.44 0.49866,-0.44 0.49866,-1.08533 0,-0.41067 -0.82133,-1.87733 -1.29066,-2.288 -1.29066,-4.51733 0,-2.84533 1.93599,-4.83999 1.96534,-2.024 4.72267,-2.024 1.26133,0 2.37599,0.41066 z m 2.66931,19.65332 v -12.70132 q 0,-3.344 1.99467,-5.33866 1.99466,-2.024 5.33866,-2.024 3.84266,0 5.60266,2.66933 1.20266,1.81866 1.20266,4.89866 v 12.49599 h -5.80799 v -12.49599 q 0,-1.78933 -1.232,-1.78933 -1.29066,0 -1.29066,1.78933 v 12.49599 z m 27.04533,-20.06398 q 4.16533,0 7.128,3.05066 2.96266,3.02133 2.96266,7.27466 0,4.22399 -2.992,7.24532 -2.99199,2.992 -7.21599,2.992 -4.28266,0 -7.30399,-2.992 -3.02133,-3.02133 -3.02133,-7.27465 0,-4.34133 3.02133,-7.304 3.05066,-2.99199 7.42132,-2.99199 z m -0.11733,5.77866 q -1.81866,0 -3.10933,1.32 -1.26133,1.29066 -1.26133,3.16799 0,1.87733 1.26133,3.19733 1.26133,1.32 3.05066,1.32 1.78934,0 3.05067,-1.29066 1.26133,-1.32 1.26133,-3.19733 0,-1.87733 -1.26133,-3.19733 -1.232,-1.32 -2.992,-1.32 z m 33.32263,-5.28 v 14.07999 q 0,2.464 -1.26133,3.95999 -1.70134,2.024 -4.42933,2.024 -3.05067,0 -4.664,-2.78666 -1.78933,2.78666 -4.86932,2.78666 -2.992,0 -4.37067,-2.08266 -1.08533,-1.64267 -1.08533,-4.37066 v -13.61066 h 5.808 v 12.73066 q 0,0.792 0.0587,1.02666 0.14667,0.528 0.704,0.528 0.85067,0 0.85067,-1.46666 v -12.81866 h 5.80799 v 12.73066 q 0,0.76266 0.088,1.02666 0.14667,0.528 0.704,0.528 0.85066,0 0.85066,-1.55466 v -12.73066 z m 3.54934,0 h 7.09866 q 6.30666,0 6.30666,4.98667 0,2.43466 -2.17067,4.07732 3.13866,1.37867 3.13866,4.89866 0,2.992 -2.25866,4.54667 -1.52533,1.056 -4.28266,1.056 h -1.11467 v -5.016 h 0.99734 q 1.58399,0 1.58399,-1.02666 0,-0.93867 -1.46666,-0.93867 h -1.11467 v -5.22133 q 1.61333,-0.0293 1.61333,-1.08533 0,-1.02667 -1.46666,-1.02667 h -1.056 v 14.31466 h -5.80799 z m 24.17058,9.73866 v 5.16266 h -1.672 v 4.664 h -5.80799 v -12.43732 q 0,-2.904 1.17333,-4.664 1.96533,-2.96266 6.33599,-2.96266 3.872,0 5.544,2.376 1.17333,1.67199 1.17333,5.04532 v 12.64266 h -5.80799 v -12.26132 q 0,-1.056 -0.20534,-1.43734 -0.29333,-0.58666 -1.056,-0.58666 -1.34933,0 -1.34933,2.024 v 2.43466 z m 9.88535,-9.73866 h 5.80799 v 11.61599 q 0,1.496 0.58667,1.936 0.46933,0.352 1.87733,0.352 v 5.66133 h -1.55466 q -2.992,0 -4.78133,-1.73067 -1.936,-1.87733 -1.936,-5.27999 z m 9.82663,0 h 5.80799 v 11.61599 q 0,1.496 0.58667,1.936 0.46933,0.352 1.87733,0.352 v 5.66133 h -1.55467 q -2.99199,0 -4.78132,-1.73067 -1.936,-1.87733 -1.936,-5.27999 z"/>
  </g>
</svg>