<svg xmlns="http://www.w3.org/2000/svg" id="svg1" version="1.1" viewBox="2.3728813559322033 102.76199999999999 205.25423728813558 70.68599999999999" style="max-height: 500px" width="205.25423728813558" height="70.68599999999999">
  
    
  
  <defs id="defs1"/>
  <g id="layer1">
    <path aria-label="SWEET" transform="matrix(1.1709761,0,0,1.1709761,36.681321,28.968388)" style="font-size: 38.8056px; font-family: Bilbao; text-align: center; text-anchor: middle; white-space: pre; fill: rgb(255, 255, 255); fill-opacity: 1; stroke: rgb(158, 199, 147); stroke-width: 0.978958; stroke-dasharray: 3.91583, 1.95792; stroke-opacity: 0; --dm-inline-fill: #f2f0ed; --dm-inline-stroke: #a0cd94;" id="text1261" d="m 19.886999,63.973218 v 7.373063 q -0.931335,-0.271639 -1.319391,-0.271639 -0.853723,0 -1.474612,0.659695 -0.62089,0.62089 -0.62089,1.513419 0,0.814917 1.280585,3.026837 1.591029,2.755197 1.591029,5.19995 0,3.88056 -2.677586,6.51934 -2.638781,2.638781 -6.558146,2.638781 -1.9014745,0 -3.6865321,-0.892529 V 82.28946 q 1.0865568,0.698501 2.0178912,0.698501 0.97014,0 1.6298349,-0.582084 0.659695,-0.582084 0.659695,-1.435807 0,-0.543278 -1.0865563,-2.483558 -1.7074464,-3.026837 -1.7074464,-5.976063 0,-3.764143 2.5611697,-6.402923 2.599975,-2.677587 6.247701,-2.677587 1.668641,0 3.143254,0.543279 z m 31.160866,0.116416 v 18.626688 q 0,3.25967 -1.668641,5.238756 -2.250725,2.677586 -5.859645,2.677586 -4.035783,0 -6.170091,-3.686532 -2.367141,3.686532 -6.441729,3.686532 -3.958171,0 -5.782034,-2.755197 -1.435807,-2.173114 -1.435807,-5.782035 V 64.089634 h 7.683508 v 16.84163 q 0,1.047752 0.07761,1.358196 0.194028,0.698501 0.931335,0.698501 1.125362,0 1.125362,-1.94028 V 64.089634 h 7.683509 v 16.84163 q 0,1.008946 0.116417,1.358196 0.194028,0.698501 0.931334,0.698501 1.125362,0 1.125362,-2.056697 V 64.089634 Z M 69.51934,74.17909 v 5.782034 h -5.044728 q -0.97014,0 -1.397001,0.27164 -0.465667,0.388056 -0.465667,1.047751 0,0.659695 0.543278,1.086557 0.34925,0.194028 1.668641,0.194028 h 5.19995 v 7.411869 H 63.97014 q -4.113394,0 -6.364119,-1.979086 -2.405947,-2.134307 -2.405947,-5.937256 V 71.88956 q 0,-3.725338 2.134308,-5.743229 2.134308,-2.056697 5.976062,-2.056697 h 6.713369 v 7.41187 h -4.928311 q -1.979086,0 -1.979086,1.31939 0,1.358196 2.173114,1.358196 z m 18.704312,0 v 5.782034 h -5.044728 q -0.97014,0 -1.397002,0.27164 -0.465667,0.388056 -0.465667,1.047751 0,0.659695 0.543278,1.086557 0.349251,0.194028 1.668641,0.194028 h 5.19995 v 7.411869 h -6.053673 q -4.113394,0 -6.364118,-1.979086 -2.405947,-2.134307 -2.405947,-5.937256 V 71.88956 q 0,-3.725338 2.134307,-5.743229 2.134308,-2.056697 5.976063,-2.056697 h 6.713368 v 7.41187 h -4.928311 q -1.979085,0 -1.979085,1.31939 0,1.358196 2.173113,1.358196 z M 104.4056,71.501504 V 89.972969 H 96.722094 V 71.501504 h -5.898451 v -7.41187 h 19.441607 v 7.41187 z" data-dm-inline-fill="" data-dm-inline-stroke=""/>
    <path aria-label="SNOWBALL" style="font-size: 45.4404px; font-family: Bilbao; text-align: center; text-anchor: middle; fill: rgb(255, 255, 255); fill-opacity: 1; stroke: rgb(158, 199, 147); stroke-width: 1.14633; stroke-dasharray: 4.58534, 2.29268; stroke-opacity: 0; --dm-inline-fill: #f2f0ed; --dm-inline-stroke: #a0cd94;" id="text1262" d="m 21.003451,139.98418 v 8.63367 q -1.09057,-0.31808 -1.544974,-0.31808 -0.999689,0 -1.726735,0.77249 -0.727047,0.72704 -0.727047,1.77217 0,0.95425 1.499534,3.54435 1.863056,3.22627 1.863056,6.08902 0,4.54404 -3.135388,7.63398 -3.089947,3.08995 -7.6794271,3.08995 -2.2265795,0 -4.3168379,-1.04513 v -8.72455 q 1.2723312,0.81792 2.3629008,0.81792 1.13601,0 1.9084967,-0.6816 0.7724865,-0.68161 0.7724865,-1.6813 0,-0.63616 -1.2723308,-2.90818 -1.9993776,-3.54435 -1.9993776,-6.99782 0,-4.40772 2.9990664,-7.49767 3.044507,-3.13539 7.315904,-3.13539 1.953937,0 3.680673,0.63617 z m 4.135042,30.44506 v -19.67569 q 0,-5.1802 3.089947,-8.27015 3.089947,-3.13539 8.270153,-3.13539 5.952692,0 8.679116,4.13508 1.863056,2.8173 1.863056,7.58854 v 19.35761 h -8.997199 v -19.35761 q 0,-2.77186 -1.908497,-2.77186 -1.999377,0 -1.999377,2.77186 v 19.35761 z m 41.896092,-31.08123 q 6.452537,0 11.042017,4.7258 4.589481,4.68036 4.589481,11.26922 0,6.54342 -4.634921,11.22378 -4.634921,4.63492 -11.178338,4.63492 -6.634299,0 -11.31466,-4.63492 -4.680361,-4.68036 -4.680361,-11.26922 0,-6.72518 4.680361,-11.31466 4.725802,-4.63492 11.496421,-4.63492 z m -0.181761,8.95176 q -2.817305,0 -4.816683,2.04482 -1.953937,1.99938 -1.953937,4.90756 0,2.90819 1.953937,4.95301 1.953938,2.04481 4.725802,2.04481 2.771864,0 4.725801,-1.99937 1.953938,-2.04482 1.953938,-4.95301 0,-2.90818 -1.953938,-4.953 -1.908496,-2.04482 -4.63492,-2.04482 z m 51.620296,-8.17927 v 21.81139 q 0,3.81699 -1.95394,6.13445 -2.63554,3.13539 -6.8615,3.13539 -4.7258,0 -7.22502,-4.31684 -2.771866,4.31684 -7.543108,4.31684 -4.634921,0 -6.77062,-3.22627 -1.681294,-2.54466 -1.681294,-6.77062 V 140.1205 h 8.997199 v 19.72113 q 0,1.22689 0.09088,1.59042 0.227202,0.81792 1.09057,0.81792 1.317772,0 1.317772,-2.27202 V 140.1205 h 8.997201 v 19.72113 q 0,1.18145 0.13632,1.59042 0.2272,0.81792 1.09057,0.81792 1.31777,0 1.31777,-2.40834 V 140.1205 Z m 5.4983,0 h 10.99657 q 9.76969,0 9.76969,7.72487 0,3.77155 -3.36259,6.31621 4.86212,2.1357 4.86212,7.58855 0,4.63492 -3.49891,7.04326 -2.3629,1.63585 -6.6343,1.63585 h -1.72673 v -7.7703 h 1.54497 q 2.45378,0 2.45378,-1.59042 0,-1.45409 -2.27202,-1.45409 h -1.72673 v -8.08839 q 2.49922,-0.0454 2.49922,-1.6813 0,-1.59041 -2.27202,-1.59041 h -1.63585 v 22.17491 h -8.9972 z m 37.4428,15.08621 v 7.99751 h -2.5901 v 7.22502 h -8.9972 v -19.26672 q 0,-4.4986 1.81762,-7.22503 3.0445,-4.58948 9.81512,-4.58948 5.99813,0 8.58824,3.68067 1.81761,2.59011 1.81761,7.81575 v 19.58481 h -8.9972 v -18.99408 q 0,-1.63586 -0.31808,-2.22658 -0.4544,-0.90881 -1.63585,-0.90881 -2.09026,0 -2.09026,3.13539 v 3.77155 z m 15.31347,-15.08621 h 8.9972 v 17.9944 q 0,2.31746 0.90881,2.99906 0.72705,0.54529 2.90818,0.54529 v 8.76999 h -2.40834 q -4.63492,0 -7.40678,-2.68098 -2.99907,-2.90818 -2.99907,-8.17927 z m 15.22249,0 h 8.9972 v 17.9944 q 0,2.31746 0.90881,2.99906 0.72704,0.54529 2.90818,0.54529 v 8.76999 h -2.40834 q -4.63492,0 -7.40678,-2.68098 -2.99907,-2.90818 -2.99907,-8.17927 z" data-dm-inline-fill="" data-dm-inline-stroke=""/>
  </g>
</svg>